<svg id="svg" version="1.1" xmlns="http://www.w3.org/2000/svg" xmlns:xlink="http://www.w3.org/1999/xlink" width="400" height="400" viewBox="0, 0, 400,400"><g id="svgg"><path id="path0" d="M198.828 110.938 C 199.164 111.155,199.220 111.319,198.958 111.322 C 198.707 111.325,198.195 111.446,197.819 111.590 C 197.318 111.782,197.222 111.715,197.457 111.334 C 197.672 110.987,197.626 110.910,197.320 111.099 C 197.068 111.255,196.948 111.520,197.052 111.689 C 197.288 112.070,195.535 113.764,195.225 113.454 C 195.101 113.330,194.867 113.444,194.705 113.706 C 194.517 114.011,194.573 114.083,194.862 113.904 C 195.566 113.469,195.391 114.294,194.652 114.894 C 194.089 115.350,194.040 115.348,194.321 114.881 C 194.547 114.506,194.507 114.422,194.195 114.615 C 193.943 114.771,193.836 115.058,193.957 115.253 C 194.258 115.741,193.403 117.261,192.976 116.997 C 192.787 116.880,192.505 116.990,192.349 117.241 C 192.173 117.527,192.236 117.594,192.518 117.420 C 193.227 116.982,193.060 117.404,191.766 119.321 C 191.091 120.322,190.380 120.988,190.144 120.842 C 189.888 120.685,189.837 120.767,190.012 121.051 C 190.476 121.801,189.194 123.418,188.276 123.241 C 187.831 123.156,187.582 123.254,187.712 123.464 C 187.840 123.671,188.131 123.726,188.359 123.585 C 188.597 123.438,188.696 123.560,188.592 123.871 C 188.493 124.170,188.221 124.414,187.988 124.414 C 187.756 124.414,187.419 124.574,187.240 124.770 C 187.047 124.980,187.135 124.997,187.453 124.813 C 187.822 124.599,187.934 124.672,187.809 125.043 C 187.708 125.342,187.250 125.565,186.791 125.540 C 186.331 125.515,186.051 125.649,186.169 125.839 C 186.286 126.029,186.569 126.069,186.796 125.929 C 187.035 125.781,187.134 125.903,187.030 126.215 C 186.930 126.514,186.659 126.758,186.426 126.758 C 186.193 126.758,185.856 126.918,185.677 127.113 C 185.488 127.320,185.556 127.351,185.840 127.188 C 186.638 126.729,186.371 127.457,185.282 128.711 C 184.316 129.823,184.296 129.829,184.906 128.820 C 185.452 127.919,185.460 127.792,184.962 127.983 C 184.639 128.107,184.355 128.497,184.330 128.850 C 184.305 129.203,184.244 129.668,184.194 129.883 C 184.144 130.098,184.077 130.427,184.044 130.614 C 184.011 130.802,183.677 130.714,183.301 130.419 C 182.687 129.937,182.670 129.950,183.133 130.541 C 183.696 131.261,183.096 133.034,182.429 132.622 C 182.240 132.505,181.958 132.615,181.803 132.866 C 181.626 133.152,181.689 133.219,181.971 133.045 C 182.675 132.610,182.500 133.435,181.761 134.034 C 181.198 134.491,181.149 134.489,181.431 134.022 C 181.657 133.646,181.617 133.562,181.304 133.756 C 181.052 133.911,180.946 134.198,181.066 134.394 C 181.368 134.881,180.513 136.401,180.086 136.137 C 179.896 136.020,179.614 136.131,179.459 136.382 C 179.272 136.684,179.346 136.734,179.678 136.529 C 180.012 136.323,180.119 136.400,179.996 136.762 C 179.896 137.060,179.438 137.284,178.978 137.259 C 178.519 137.233,178.239 137.368,178.356 137.558 C 178.474 137.748,178.733 137.802,178.933 137.679 C 179.573 137.283,179.322 138.165,178.636 138.722 C 178.187 139.086,178.069 139.101,178.268 138.770 C 178.696 138.058,178.309 138.172,177.685 138.942 C 177.230 139.503,177.230 139.554,177.687 139.278 C 178.062 139.053,178.166 139.119,178.029 139.496 C 177.921 139.795,177.655 140.002,177.439 139.957 C 177.222 139.911,177.068 140.171,177.097 140.533 C 177.125 140.896,176.943 141.196,176.693 141.202 C 176.442 141.207,176.090 141.371,175.911 141.567 C 175.722 141.773,175.791 141.804,176.074 141.641 C 176.734 141.261,176.688 141.632,175.934 142.784 C 175.588 143.312,175.161 143.654,174.984 143.545 C 174.808 143.436,174.536 143.552,174.381 143.804 C 174.194 144.106,174.268 144.156,174.600 143.951 C 174.934 143.745,175.041 143.822,174.920 144.184 C 174.821 144.482,174.549 144.727,174.316 144.727 C 174.084 144.727,173.747 144.887,173.568 145.082 C 173.376 145.292,173.463 145.310,173.781 145.125 C 174.150 144.912,174.263 144.985,174.139 145.356 C 174.040 145.654,173.768 145.898,173.535 145.898 C 173.302 145.898,172.965 146.058,172.786 146.254 C 172.594 146.464,172.682 146.482,173.000 146.297 C 173.369 146.084,173.482 146.156,173.358 146.528 C 173.258 146.826,172.987 147.070,172.754 147.070 C 172.521 147.070,172.184 147.230,172.005 147.426 C 171.813 147.636,171.900 147.654,172.219 147.469 C 172.587 147.256,172.700 147.328,172.577 147.700 C 172.477 147.998,172.205 148.242,171.973 148.242 C 171.740 148.242,171.403 148.402,171.224 148.598 C 171.032 148.808,171.119 148.825,171.437 148.641 C 171.806 148.427,171.919 148.500,171.795 148.871 C 171.696 149.170,171.424 149.414,171.191 149.414 C 170.959 149.414,170.622 149.574,170.443 149.770 C 170.254 149.976,170.322 150.008,170.605 149.844 C 171.276 149.458,171.218 150.040,170.481 151.091 C 170.144 151.573,169.717 151.872,169.532 151.758 C 169.346 151.643,169.067 151.756,168.912 152.007 C 168.735 152.293,168.799 152.360,169.080 152.186 C 169.802 151.739,169.620 152.190,168.145 154.496 C 167.382 155.688,166.600 156.565,166.407 156.446 C 166.213 156.326,165.861 156.629,165.623 157.118 C 165.209 157.970,165.217 157.976,165.799 157.250 C 166.133 156.833,166.406 156.609,166.406 156.754 C 166.406 157.133,163.687 161.328,163.442 161.328 C 163.328 161.328,163.344 161.152,163.477 160.938 C 163.870 160.302,163.421 160.492,162.841 161.208 C 162.386 161.769,162.386 161.820,162.844 161.544 C 163.218 161.318,163.323 161.385,163.185 161.762 C 163.077 162.060,162.777 162.256,162.520 162.197 C 162.262 162.138,162.160 162.267,162.294 162.482 C 162.611 162.996,161.781 164.538,161.336 164.262 C 161.146 164.145,160.864 164.256,160.709 164.507 C 160.522 164.809,160.596 164.859,160.928 164.654 C 161.262 164.448,161.369 164.525,161.246 164.887 C 161.146 165.185,160.688 165.409,160.228 165.384 C 159.769 165.358,159.489 165.493,159.606 165.683 C 159.724 165.873,160.006 165.913,160.234 165.772 C 160.472 165.625,160.571 165.747,160.467 166.059 C 160.368 166.357,160.096 166.602,159.863 166.602 C 159.631 166.602,159.294 166.762,159.115 166.957 C 158.925 167.164,158.994 167.195,159.277 167.032 C 159.873 166.689,159.898 166.992,159.355 168.005 C 159.130 168.427,158.790 168.676,158.601 168.559 C 158.412 168.442,158.130 168.552,157.974 168.804 C 157.788 169.106,157.862 169.156,158.193 168.951 C 158.528 168.745,158.635 168.822,158.514 169.184 C 158.415 169.482,158.143 169.727,157.910 169.727 C 157.677 169.727,157.340 169.887,157.161 170.082 C 156.969 170.292,157.057 170.310,157.375 170.125 C 157.746 169.911,157.852 169.982,157.717 170.356 C 157.608 170.654,157.328 170.857,157.094 170.805 C 156.860 170.754,156.762 170.956,156.877 171.254 C 156.991 171.552,156.870 171.929,156.607 172.091 C 156.281 172.292,156.230 172.224,156.445 171.875 C 156.656 171.534,156.609 171.458,156.304 171.646 C 156.052 171.802,155.946 172.089,156.066 172.285 C 156.368 172.772,155.513 174.292,155.086 174.028 C 154.896 173.911,154.614 174.021,154.459 174.273 C 154.282 174.558,154.345 174.625,154.627 174.451 C 155.188 174.105,155.201 174.431,154.668 175.427 C 154.442 175.849,154.064 176.074,153.826 175.927 C 153.574 175.771,153.505 175.838,153.659 176.088 C 153.980 176.607,150.760 183.236,150.320 182.964 C 150.149 182.858,150.098 183.003,150.206 183.286 C 150.315 183.569,149.865 185.380,149.206 187.310 C 147.671 191.812,146.531 197.297,146.295 201.320 C 145.893 208.172,145.812 211.874,146.093 210.547 L 146.382 209.180 146.433 210.411 C 146.528 212.692,147.950 218.950,149.165 222.432 C 149.828 224.333,150.259 226.084,150.123 226.323 C 149.986 226.562,150.017 226.629,150.191 226.472 C 150.364 226.315,151.447 227.889,152.597 229.970 C 154.889 234.118,154.905 234.155,154.199 233.749 C 153.916 233.586,153.847 233.617,154.036 233.824 C 154.215 234.020,154.552 234.180,154.785 234.180 C 155.018 234.180,155.290 234.424,155.389 234.722 C 155.513 235.094,155.400 235.166,155.031 234.953 C 154.713 234.768,154.626 234.786,154.818 234.996 C 154.997 235.192,155.260 235.354,155.404 235.358 C 155.906 235.369,156.641 235.988,156.641 236.399 C 156.641 236.649,156.368 236.604,155.957 236.285 C 155.401 235.854,155.412 235.918,156.018 236.628 C 156.837 237.588,157.221 237.772,156.820 237.012 C 156.678 236.743,157.189 237.227,157.954 238.086 C 159.368 239.674,159.771 240.504,158.887 240.006 C 158.618 239.855,159.149 240.514,160.067 241.471 C 160.985 242.428,161.644 243.333,161.532 243.481 C 161.420 243.629,161.444 243.664,161.585 243.558 C 161.967 243.273,162.861 244.126,162.736 244.657 C 162.677 244.910,162.704 244.978,162.797 244.808 C 162.890 244.638,163.257 244.716,163.612 244.981 C 163.967 245.246,163.115 244.249,161.719 242.765 L 159.180 240.066 161.719 242.366 C 163.115 243.631,164.609 245.020,165.039 245.454 L 165.820 246.243 165.039 245.687 C 164.266 245.136,164.266 245.140,165.002 246.003 C 165.764 246.896,166.252 247.184,165.820 246.484 C 165.413 245.825,166.277 246.052,166.847 246.755 C 167.309 247.325,167.302 247.368,166.797 247.070 C 166.291 246.772,166.285 246.816,166.747 247.386 C 167.327 248.101,167.776 248.292,167.383 247.656 C 166.975 246.996,167.839 247.224,168.409 247.927 C 168.872 248.497,168.865 248.540,168.359 248.242 C 167.854 247.944,167.847 247.988,168.310 248.558 C 168.890 249.273,169.338 249.464,168.945 248.828 C 168.536 248.166,169.040 248.383,171.367 249.871 C 173.788 251.420,179.733 254.280,182.176 255.071 C 183.311 255.439,183.554 255.652,183.152 255.931 C 182.767 256.198,182.847 256.237,183.438 256.072 C 183.890 255.946,186.087 256.293,188.321 256.843 C 194.088 258.261,201.733 258.555,207.813 257.593 C 210.283 257.201,212.881 256.884,213.585 256.888 C 214.289 256.892,214.668 256.773,214.427 256.624 C 214.170 256.465,214.426 256.243,215.048 256.087 C 215.631 255.941,216.204 255.918,216.322 256.036 C 216.440 256.154,216.302 256.250,216.016 256.250 C 215.729 256.250,215.587 256.342,215.699 256.455 C 216.064 256.820,217.191 256.181,216.929 255.757 C 216.768 255.496,216.983 255.426,217.518 255.566 C 217.981 255.687,218.271 255.642,218.162 255.466 C 217.878 255.005,221.330 253.765,221.905 254.120 C 222.236 254.325,222.286 254.256,222.067 253.900 C 221.827 253.512,221.931 253.454,222.483 253.665 C 222.887 253.820,223.097 253.826,222.949 253.678 C 222.801 253.530,224.213 252.541,226.086 251.481 C 227.959 250.421,229.968 249.214,230.551 248.800 C 231.713 247.973,232.210 247.833,231.836 248.438 C 231.443 249.073,231.891 248.883,232.472 248.167 C 232.934 247.597,232.927 247.553,232.422 247.844 C 232.056 248.055,232.115 247.863,232.580 247.333 C 233.464 246.325,234.312 246.182,233.556 247.168 C 233.267 247.544,233.510 247.425,234.094 246.905 C 235.199 245.920,235.597 245.241,234.570 246.094 C 234.248 246.361,233.984 246.487,233.984 246.373 C 233.984 246.260,234.907 245.413,236.035 244.493 L 238.086 242.820 236.719 244.351 C 235.967 245.193,235.717 245.578,236.165 245.206 C 236.612 244.834,237.095 244.618,237.239 244.726 C 237.382 244.834,237.412 244.804,237.304 244.661 C 237.196 244.517,237.399 244.077,237.755 243.684 C 238.111 243.291,238.260 242.969,238.086 242.969 C 237.912 242.969,238.084 242.621,238.468 242.197 C 238.853 241.772,239.291 241.501,239.442 241.595 C 239.593 241.688,240.405 241.033,241.245 240.139 C 242.086 239.245,242.466 238.746,242.090 239.031 C 241.105 239.777,241.246 238.933,242.255 238.049 C 242.792 237.578,242.982 237.520,242.773 237.891 C 242.565 238.262,242.755 238.204,243.292 237.732 C 244.240 236.901,244.473 236.347,243.555 237.109 C 242.626 237.880,242.874 236.923,243.817 236.096 C 244.284 235.686,244.537 235.571,244.380 235.840 C 243.965 236.549,244.346 236.438,244.972 235.667 C 245.336 235.218,245.351 235.100,245.020 235.300 C 244.290 235.738,244.410 235.404,245.756 233.238 C 246.429 232.155,247.159 231.380,247.379 231.515 C 247.598 231.651,247.661 231.574,247.520 231.346 C 247.379 231.117,248.138 229.112,249.208 226.891 C 251.396 222.346,252.928 217.414,253.678 212.500 C 254.026 210.223,254.236 209.548,254.348 210.352 C 254.437 210.996,254.455 209.150,254.389 206.250 C 254.322 203.350,253.999 199.261,253.671 197.163 C 253.343 195.066,253.186 192.957,253.321 192.476 C 253.522 191.760,253.485 191.708,253.118 192.188 C 252.762 192.652,252.710 192.491,252.870 191.406 C 252.981 190.654,252.972 190.288,252.849 190.593 C 252.612 191.181,249.548 183.200,249.464 181.776 C 249.436 181.313,249.308 181.000,249.178 181.080 C 249.048 181.160,248.727 180.748,248.464 180.164 C 248.200 179.579,247.112 177.647,246.046 175.869 C 244.979 174.092,244.215 172.461,244.348 172.246 C 244.481 172.031,244.379 171.904,244.121 171.963 C 243.863 172.022,243.564 171.826,243.455 171.528 C 243.320 171.154,243.426 171.082,243.797 171.297 C 244.115 171.482,244.203 171.464,244.010 171.254 C 243.831 171.058,243.494 170.898,243.262 170.898 C 243.029 170.898,242.757 170.654,242.658 170.356 C 242.554 170.044,242.653 169.922,242.891 170.069 C 243.119 170.210,243.410 170.156,243.538 169.949 C 243.666 169.741,243.430 169.638,243.012 169.718 C 242.477 169.821,241.956 169.415,241.244 168.339 C 240.124 166.647,239.993 166.221,240.723 166.641 C 241.006 166.804,241.075 166.773,240.885 166.567 C 240.706 166.371,240.369 166.211,240.137 166.211 C 239.904 166.211,239.632 165.967,239.533 165.668 C 239.409 165.297,239.522 165.224,239.891 165.438 C 240.209 165.622,240.296 165.605,240.104 165.395 C 239.925 165.199,239.588 165.039,239.355 165.039 C 239.123 165.039,238.851 164.795,238.751 164.496 C 238.628 164.125,238.741 164.052,239.109 164.266 C 239.428 164.450,239.515 164.433,239.323 164.223 C 239.144 164.027,238.807 163.867,238.574 163.867 C 238.341 163.867,238.070 163.623,237.970 163.325 C 237.846 162.953,237.960 162.881,238.328 163.094 C 238.646 163.279,238.734 163.261,238.542 163.051 C 238.363 162.855,238.026 162.695,237.793 162.695 C 237.560 162.695,237.288 162.451,237.189 162.153 C 237.065 161.781,237.178 161.709,237.547 161.922 C 237.865 162.107,237.953 162.089,237.760 161.879 C 237.581 161.683,237.244 161.523,237.012 161.523 C 236.779 161.523,236.507 161.279,236.408 160.981 C 236.304 160.669,236.403 160.547,236.641 160.694 C 236.869 160.835,237.151 160.795,237.269 160.605 C 237.386 160.415,237.106 160.280,236.647 160.306 C 236.187 160.331,235.729 160.107,235.629 159.809 C 235.503 159.437,235.616 159.365,235.984 159.579 C 236.303 159.763,236.390 159.745,236.198 159.535 C 236.019 159.340,235.682 159.180,235.449 159.180 C 235.216 159.180,234.945 158.935,234.845 158.637 C 234.725 158.275,234.832 158.198,235.166 158.404 C 235.497 158.609,235.572 158.559,235.385 158.257 C 235.229 158.006,234.958 157.889,234.781 157.998 C 234.605 158.107,234.178 157.765,233.832 157.237 C 232.935 155.869,233.070 155.485,234.041 156.641 L 234.862 157.617 234.278 156.641 C 233.957 156.104,233.466 155.664,233.188 155.664 C 232.910 155.664,232.601 155.420,232.501 155.121 C 232.378 154.750,232.491 154.677,232.859 154.891 C 233.178 155.075,233.265 155.058,233.073 154.848 C 232.894 154.652,232.557 154.492,232.324 154.492 C 232.091 154.492,231.820 154.248,231.720 153.950 C 231.596 153.578,231.710 153.506,232.078 153.719 C 232.396 153.904,232.484 153.886,232.292 153.676 C 232.113 153.480,231.776 153.320,231.543 153.320 C 231.310 153.320,231.038 153.076,230.939 152.778 C 230.815 152.406,230.928 152.334,231.297 152.547 C 231.615 152.732,231.703 152.714,231.510 152.504 C 231.331 152.308,230.994 152.148,230.762 152.148 C 230.529 152.148,230.257 151.904,230.158 151.606 C 230.034 151.235,230.147 151.162,230.516 151.375 C 230.834 151.560,230.921 151.542,230.729 151.332 C 230.550 151.137,230.213 150.977,229.980 150.977 C 229.748 150.977,229.476 150.732,229.376 150.434 C 229.253 150.063,229.366 149.990,229.734 150.204 C 230.053 150.388,230.140 150.370,229.948 150.160 C 229.769 149.965,229.432 149.805,229.199 149.805 C 228.966 149.805,228.695 149.560,228.595 149.262 C 228.475 148.900,228.582 148.823,228.916 149.029 C 229.247 149.234,229.322 149.184,229.135 148.882 C 228.979 148.631,228.696 148.521,228.506 148.639 C 228.055 148.918,226.814 147.026,227.121 146.529 C 227.251 146.319,227.151 146.021,226.899 145.865 C 226.596 145.678,226.538 145.767,226.727 146.131 C 226.884 146.433,226.640 146.255,226.185 145.736 C 225.729 145.218,225.446 144.561,225.555 144.276 C 225.664 143.992,225.540 143.801,225.279 143.852 C 225.018 143.903,224.802 143.650,224.800 143.289 C 224.797 142.928,224.637 142.489,224.444 142.313 C 224.240 142.126,224.226 142.221,224.412 142.541 C 224.633 142.921,224.584 142.999,224.252 142.794 C 223.990 142.632,223.884 142.215,224.017 141.867 C 224.151 141.519,224.135 141.360,223.982 141.512 C 223.664 141.831,222.656 141.103,222.656 140.554 C 222.656 140.353,222.859 140.314,223.107 140.467 C 223.389 140.641,223.452 140.574,223.276 140.288 C 223.120 140.037,222.848 139.920,222.672 140.029 C 222.495 140.138,222.068 139.796,221.722 139.268 C 220.968 138.117,220.922 137.746,221.582 138.126 C 221.866 138.289,221.934 138.258,221.745 138.051 C 221.566 137.855,221.229 137.695,220.996 137.695 C 220.763 137.695,220.492 137.451,220.392 137.153 C 220.268 136.781,220.381 136.709,220.750 136.922 C 221.068 137.107,221.156 137.089,220.964 136.879 C 220.785 136.683,220.448 136.523,220.215 136.523 C 219.982 136.523,219.710 136.279,219.611 135.981 C 219.487 135.610,219.600 135.537,219.969 135.750 C 220.287 135.935,220.374 135.917,220.182 135.707 C 220.003 135.512,219.666 135.352,219.434 135.352 C 219.201 135.352,218.929 135.107,218.830 134.809 C 218.709 134.447,218.816 134.370,219.150 134.576 C 219.482 134.781,219.556 134.731,219.369 134.429 C 219.214 134.177,218.949 134.057,218.780 134.161 C 218.351 134.426,215.502 130.203,215.792 129.733 C 215.922 129.523,215.823 129.224,215.571 129.068 C 215.258 128.875,215.218 128.959,215.444 129.334 C 215.726 129.801,215.677 129.803,215.114 129.347 C 214.351 128.728,214.214 127.941,214.941 128.360 C 215.225 128.523,215.293 128.492,215.104 128.285 C 214.925 128.090,214.588 127.930,214.355 127.930 C 214.123 127.930,213.851 127.685,213.751 127.387 C 213.647 127.075,213.747 126.953,213.985 127.100 C 214.213 127.241,214.495 127.201,214.613 127.011 C 214.730 126.821,214.450 126.686,213.991 126.712 C 213.531 126.737,213.073 126.514,212.972 126.215 C 212.850 125.853,212.956 125.776,213.291 125.983 C 213.622 126.187,213.697 126.137,213.510 125.835 C 213.354 125.584,213.071 125.474,212.881 125.592 C 212.410 125.883,211.195 123.968,211.519 123.445 C 211.661 123.215,211.551 123.076,211.275 123.135 C 210.993 123.195,210.747 122.847,210.712 122.337 C 210.679 121.840,210.430 121.224,210.161 120.970 C 209.768 120.600,209.762 120.702,210.130 121.484 L 210.591 122.461 209.788 121.539 C 208.896 120.516,208.715 119.721,209.473 120.157 C 209.756 120.320,209.825 120.289,209.635 120.082 C 209.456 119.887,209.193 119.724,209.049 119.721 C 208.560 119.709,207.813 119.095,207.813 118.704 C 207.813 118.489,208.032 118.440,208.301 118.594 C 208.584 118.758,208.653 118.726,208.464 118.520 C 208.285 118.324,207.948 118.164,207.715 118.164 C 207.482 118.164,207.210 117.920,207.111 117.621 C 206.987 117.250,207.100 117.177,207.469 117.391 C 207.787 117.575,207.874 117.558,207.682 117.348 C 207.503 117.152,207.166 116.992,206.934 116.992 C 206.701 116.992,206.429 116.748,206.330 116.450 C 206.206 116.078,206.319 116.006,206.688 116.219 C 207.006 116.404,207.093 116.386,206.901 116.176 C 206.722 115.980,206.370 115.816,206.120 115.811 C 205.869 115.806,205.687 115.505,205.716 115.143 C 205.744 114.780,205.590 114.521,205.374 114.566 C 205.158 114.611,204.892 114.404,204.783 114.106 C 204.646 113.729,204.750 113.662,205.125 113.888 C 205.581 114.163,205.582 114.112,205.132 113.556 C 204.839 113.195,204.467 112.981,204.305 113.081 C 204.143 113.181,203.696 112.915,203.312 112.491 C 202.551 111.650,203.030 111.413,203.885 112.207 C 204.301 112.593,204.354 112.594,204.137 112.209 C 203.986 111.942,203.500 111.529,203.056 111.291 C 202.536 111.013,202.339 111.004,202.501 111.266 C 202.802 111.754,200.003 111.408,199.434 110.887 C 199.229 110.700,198.878 110.550,198.652 110.553 C 198.427 110.556,198.506 110.729,198.828 110.938 M217.578 132.422 C 218.037 133.066,218.500 133.594,218.608 133.594 C 218.715 133.594,218.428 133.066,217.969 132.422 C 217.510 131.777,217.046 131.250,216.939 131.250 C 216.832 131.250,217.119 131.777,217.578 132.422 M167.941 153.568 C 167.618 154.171,167.411 154.268,167.194 153.917 C 166.981 153.573,166.817 153.557,166.627 153.865 C 166.480 154.102,166.565 154.297,166.816 154.297 C 167.080 154.297,167.171 154.584,167.033 154.980 C 166.841 155.532,166.914 155.513,167.410 154.883 C 168.214 153.863,168.829 152.734,168.582 152.734 C 168.475 152.734,168.186 153.110,167.941 153.568 M152.278 178.308 C 152.037 178.838,151.662 179.163,151.445 179.029 C 151.224 178.892,151.171 178.980,151.325 179.228 C 151.475 179.472,151.400 180.042,151.158 180.494 C 150.916 180.947,150.786 181.385,150.869 181.468 C 150.952 181.551,151.492 180.657,152.068 179.481 C 152.645 178.306,153.027 177.344,152.917 177.344 C 152.807 177.344,152.520 177.778,152.278 178.308 M254.819 204.297 C 254.819 205.908,254.888 206.567,254.972 205.762 C 255.056 204.956,255.056 203.638,254.972 202.832 C 254.888 202.026,254.819 202.686,254.819 204.297 M145.419 205.469 C 145.419 206.436,145.495 206.831,145.588 206.348 C 145.681 205.864,145.681 205.073,145.588 204.590 C 145.495 204.106,145.419 204.502,145.419 205.469 M147.948 223.884 C 148.224 224.938,148.707 225.116,148.934 224.248 C 149.061 223.760,148.893 223.443,148.442 223.325 C 147.925 223.190,147.803 223.328,147.948 223.884 M150.639 228.324 C 150.495 228.698,150.560 228.848,150.801 228.698 C 151.058 228.540,151.114 228.806,150.955 229.438 C 150.749 230.260,150.839 230.416,151.494 230.367 C 152.241 230.310,152.250 230.247,151.676 229.118 C 150.894 227.579,150.918 227.597,150.639 228.324 M246.633 232.520 C 245.289 234.801,245.201 234.996,245.886 234.180 C 246.679 233.234,247.363 232.031,247.107 232.031 C 247.005 232.031,246.792 232.251,246.633 232.520 M171.603 250.993 C 172.205 251.602,173.066 252.128,173.515 252.161 C 174.284 252.218,174.291 252.191,173.632 251.709 C 173.247 251.427,172.782 251.290,172.599 251.403 C 172.416 251.516,172.266 251.429,172.266 251.209 C 172.266 250.989,171.870 250.601,171.387 250.347 C 170.636 249.952,170.668 250.047,171.603 250.993 M177.562 254.089 C 177.979 254.405,178.584 254.662,178.906 254.661 C 179.246 254.660,179.082 254.425,178.516 254.102 C 177.232 253.368,176.597 253.359,177.562 254.089 M179.379 255.019 C 179.055 255.225,179.305 255.339,180.078 255.339 C 180.852 255.339,181.101 255.225,180.777 255.019 C 180.500 254.843,180.186 254.699,180.078 254.699 C 179.971 254.699,179.656 254.843,179.379 255.019 M186.133 257.031 C 186.563 257.216,187.178 257.367,187.500 257.367 C 187.869 257.367,187.797 257.243,187.305 257.031 C 186.875 256.847,186.260 256.696,185.938 256.696 C 185.568 256.696,185.640 256.820,186.133 257.031 M196.908 258.746 C 196.997 258.829,199.180 258.982,201.758 259.084 C 204.336 259.187,205.918 259.139,205.273 258.978 C 204.073 258.679,196.614 258.472,196.908 258.746 M168.488 272.168 C 185.639 272.224,213.588 272.224,230.597 272.168 C 247.607 272.112,233.574 272.066,199.414 272.066 C 165.254 272.066,151.337 272.112,168.488 272.168 M262.565 272.144 C 262.220 272.282,262.452 272.600,263.253 273.087 C 263.917 273.491,264.810 274.394,265.236 275.094 C 265.663 275.794,266.013 276.127,266.014 275.833 C 266.015 275.539,265.337 274.621,264.509 273.792 C 263.680 272.963,263.094 272.193,263.207 272.080 C 263.446 271.841,263.286 271.857,262.565 272.144 M135.990 273.257 C 134.388 273.953,134.251 273.961,134.614 273.340 C 134.771 273.071,134.518 273.186,134.052 273.596 C 133.104 274.427,132.870 274.981,133.789 274.219 C 134.541 273.594,134.537 273.998,133.780 275.155 C 133.138 276.134,132.786 280.055,133.350 279.948 C 133.538 279.912,133.780 280.127,133.889 280.425 C 134.025 280.800,133.919 280.870,133.547 280.651 C 133.250 280.477,133.343 280.716,133.752 281.183 C 134.547 282.089,134.989 282.318,134.539 281.590 C 134.373 281.322,134.480 281.220,134.809 281.330 C 135.107 281.429,135.352 281.745,135.352 282.031 C 135.352 282.318,135.615 282.624,135.938 282.712 C 136.330 282.819,136.375 282.766,136.072 282.549 C 135.669 282.260,178.888 282.248,240.685 282.520 C 252.857 282.573,262.752 282.513,262.673 282.386 C 262.515 282.130,264.910 280.245,265.258 280.352 C 265.838 280.530,265.378 275.863,264.716 274.853 C 263.194 272.530,266.935 272.655,199.329 272.672 C 145.819 272.685,137.124 272.765,135.990 273.257 M168.457 283.105 C 185.591 283.162,213.628 283.162,230.762 283.105 C 247.896 283.049,233.877 283.003,199.609 283.003 C 165.342 283.003,151.323 283.049,168.457 283.105 M156.673 292.133 C 157.257 292.328,154.652 293.927,153.817 293.886 C 153.446 293.868,153.239 294.009,153.356 294.199 C 153.474 294.389,153.763 294.424,154.000 294.278 C 154.296 294.095,154.324 294.245,154.089 294.760 C 153.742 295.524,153.541 299.714,153.868 299.388 C 154.109 299.146,156.262 301.228,156.078 301.525 C 155.999 301.653,174.976 301.710,198.250 301.651 C 226.832 301.578,240.647 301.673,240.814 301.943 C 240.950 302.164,241.535 302.323,242.113 302.298 L 243.164 302.251 241.992 301.953 C 240.877 301.669,240.869 301.653,241.820 301.609 C 242.370 301.583,243.161 301.304,243.578 300.989 C 244.621 300.200,245.128 300.247,244.493 301.074 C 244.205 301.450,244.447 301.332,245.031 300.811 C 246.134 299.828,246.430 299.355,245.637 299.846 C 245.309 300.049,245.277 299.917,245.525 299.380 C 246.269 297.773,245.788 293.649,244.743 292.664 C 244.312 292.257,244.155 292.211,244.345 292.547 C 244.581 292.964,244.490 293.037,243.977 292.840 C 243.602 292.696,243.178 292.575,243.034 292.572 C 242.891 292.569,242.976 292.437,243.224 292.279 C 243.472 292.121,224.005 291.992,199.963 291.992 C 175.921 291.992,156.440 292.056,156.673 292.133 M246.575 296.875 C 246.575 297.627,246.655 297.935,246.754 297.559 C 246.852 297.183,246.852 296.567,246.754 296.191 C 246.655 295.815,246.575 296.123,246.575 296.875 " stroke="none" fill="#d4b38b" fill-rule="evenodd"></path><path id="path1" d="M198.649 110.833 C 196.430 111.393,196.576 111.193,175.205 143.164 C 155.319 172.913,152.043 178.311,149.158 186.079 C 137.043 218.701,158.560 253.561,193.702 258.246 C 199.915 259.074,213.486 257.828,215.995 256.199 C 216.457 255.900,216.369 255.864,215.625 256.048 C 202.663 259.269,191.253 258.737,180.479 254.412 C 149.961 242.160,137.540 208.488,152.699 179.102 C 155.876 172.942,166.502 156.665,191.967 118.945 C 199.521 107.757,200.552 107.894,209.605 121.289 C 212.364 125.371,216.534 131.523,218.872 134.961 C 248.223 178.119,251.377 183.674,253.514 195.981 C 257.732 220.272,243.145 245.568,219.780 254.485 C 218.108 255.123,216.895 255.697,217.085 255.760 C 218.441 256.212,229.154 250.529,233.499 247.052 C 256.516 228.637,261.224 199.751,245.403 174.023 C 242.753 169.714,215.728 129.418,206.582 116.137 C 203.226 111.264,201.503 110.112,198.649 110.833 M135.575 272.950 C 131.675 274.938,131.503 279.749,135.250 282.033 C 137.272 283.266,261.576 283.254,263.598 282.021 C 266.891 280.013,266.670 275.168,263.187 273.045 C 261.315 271.903,137.808 271.811,135.575 272.950 M262.891 273.340 C 265.963 274.875,266.444 278.879,263.830 281.152 L 262.370 282.422 199.701 282.422 C 143.292 282.422,136.902 282.360,135.726 281.802 C 132.159 280.109,132.278 274.786,135.918 273.273 C 138.235 272.310,260.958 272.375,262.891 273.340 M156.016 292.355 C 152.439 293.912,152.271 299.179,155.726 301.444 C 156.840 302.174,234.377 302.802,240.963 302.134 C 246.749 301.547,248.656 294.785,243.738 292.297 C 242.264 291.551,157.734 291.607,156.016 292.355 M243.475 292.640 C 246.792 294.415,247.044 298.866,243.935 300.788 C 242.719 301.539,241.713 301.558,199.654 301.624 L 156.616 301.692 155.265 300.383 C 152.836 298.029,153.147 294.678,155.952 292.968 C 157.494 292.027,241.741 291.712,243.475 292.640 " stroke="none" fill="#c78a2e" fill-rule="evenodd"></path></g></svg>